<svg id="Ebene_1" data-name="Ebene 1" xmlns="http://www.w3.org/2000/svg" viewBox="0 0 490.02 466.78"><defs><style>.cls-1{fill:#686871;}.cls-2{fill:#fff;}.cls-3{fill:#3ebce2;}</style></defs><title>Artboard 3</title><path class="cls-1" d="M462.15,57.27a5.07,5.07,0,0,0-1.48-.19C437.58,57.08,359,143,311.8,200.67l-9.69,11.86,2.45-15.12c7.8-48,15.57-124.65,5-138.71-.9-1.19-1.53-1.27-1.94-1.3-16.81,0-97,87.54-143.62,142.71l-8.76,10.38L156.77,197c7.16-62.83,10.13-134.14,2.39-139.74-11.38,0-54.19,45.2-81,77.3l-8.52,10.21L71,131.53c4.81-50.34,6.87-108.34,1.84-114.95-5.32-2.85-20.19-5.87-35.41-5.87-12.18,0-21.69,2-26,5.57-7.09,7.25-5.06,100.92,1,179.79-1.48,1.17-3.38,2.6-6,4.55C1.28,206.54.85,262,.51,306.56l-.22,25C-.19,381.64-.85,450,5.36,457.45c9.13,2.2,99.82,6.24,206.1,6.24,7.76,0,15.57,0,23.37-.06,3.4,0,6.79,0,10.15,0,33.53,0,65.41,1,93.53,1.85,22.46.69,43.67,1.34,61.45,1.34h0c23.73,0,52.06-1,60.62-8.59,6-5.55,12.85-66.44,14.74-189.94C477.8,108.15,468.17,60.29,462.15,57.27Z"/><path class="cls-2" d="M33.27,12.69c6-5.28,38.62-.69,45.78,0s0,117.56,0,117.56L33.27,171.64S27.22,18,33.27,12.69ZM436.64,359.87c-2.06,50.28-6.47,80.4-6.47,80.4H361.44s4.05-42.9,0-80.4,0-62.67,0-62.67,5.31-2.56,31.73-3.81,37,3.81,37,3.81S438.69,309.58,436.64,359.87ZM477.38,232.4c-.78,104.44-1.12,209.52-10.05,207.87-15.35-2.85-26.88,0-26.88,0s16.58-146.19,0-153.35-81.88-8.18-89.29,0,0,153.35,0,153.35-43.37,1.61-96.05,2.27c-93.23,1.13-220.91,1.18-226.83-2.27-9.25-5.41-6.81-60.43-5.15-138.84s4.42-102.64,4.42-102.64,26.14-26.5,57.11-54.55,80-78.27,80-78.27-13.87,144.32.31,145.15S296.51,66.91,312.37,67s-21.23,139.65.3,144c11.6,2.34,48.43-45.05,85.61-84.65,31.84-33.89,65.21-60.78,69.05-60C470.92,67,478,153.87,477.38,232.4Z"/><path class="cls-3" d="M436.64,359.87c-2.06,50.28-6.47,80.4-6.47,80.4H361.44s4.05-42.9,0-80.4,0-62.67,0-62.67,5.31-2.56,31.73-3.81,37,3.81,37,3.81S438.69,309.58,436.64,359.87Z"/><path class="cls-2" d="M476.43,46.56a5,5,0,0,0-1.47-.2c-23.1,0-101.69,85.88-148.88,143.6l-9.69,11.85,2.45-15.11c7.8-48,15.57-124.66,5-138.72-.89-1.18-1.53-1.26-1.93-1.29-16.82,0-97,87.54-143.62,142.71l-8.77,10.38,1.53-13.5c7.16-62.82,10.13-134.13,2.39-139.73-11.37,0-52.67,46-80.12,76.24l-8.55,8.72.46-10.69c4.82-50.35,6.87-108.35,1.84-115C81.75,3,66.88,0,51.67,0,39.48,0,30,2,25.63,5.56c-7.13,7.29,1.31,177,1.31,177a36.63,36.63,0,0,0-6.3,7.4c-4.6,6-5.5,61.38-5.85,105.94l-.22,25c-.48,50-1.13,118.39,5.08,125.85,9.13,2.19,99.81,6.24,206.09,6.24q11.65,0,23.37-.07l10.16,0c33.52,0,65.4,1,93.52,1.85,22.46.68,43.67,1.34,61.46,1.34h0c23.73,0,52.07-1,60.62-8.59,6-5.56,12.86-66.44,14.74-190C492.08,97.44,482.45,49.57,476.43,46.56ZM26.9,94.23c-1.56-80.08,1.34-82.61,3.67-84.64,2.79-2.43,8-3.52,16.89-3.52,9.7,0,21.26,1.32,28.17,2.11,1.6.18,2.9.33,3.81.42,4.42.42,11.1,1.07,3.71,121.9l-.1,1.67L29.68,180.29l-.52-8.49C29.15,171.42,27.64,132.89,26.9,94.23ZM433.72,444.38H356.91l.43-4.49c0-.44,4-42.95,0-79.58-4.08-37.62-.16-62.72,0-63.77l.35-2.11,1.94-.93c1-.5,7.38-3,33.32-4.21,3-.15,5.76-.21,8.35-.21,21.15,0,30.23,4.23,30.62,4.42l1,.47.61.9c1,1.38,9.25,15,7.2,65.16-2.05,49.92-6.47,80.53-6.51,80.83Zm47.77-211.95-.11,14.35c-1.22,168.07-3.29,197.62-13.84,197.62l-.59,0-.37-.06a71.2,71.2,0,0,0-13.05-1.21,56.93,56.93,0,0,0-12.1,1.15l-5.73,1.42.66-5.88c7.65-67.42,10.75-143.61,2.45-149.1-7.38-3.2-27.27-5.43-48.35-5.43-23.24,0-34.57,2.72-36.06,4.14-4,7.43-2.59,83.17.87,150.65l.21,4.16-4.17.15c-.43,0-44,1.63-96.15,2.27-36.62.45-75.64.7-109.87.7-113,0-117.27-2.47-119.08-3.52-9.92-5.8-9.58-38.15-7.75-117.31q.28-12.12.56-25.16c1.64-77.71,4.34-102,4.45-103l.16-1.41,1-1c.26-.25,26.57-26.89,57.27-54.7,30.51-27.64,79.27-77.59,79.77-78.09l8.15-8.36L168.7,66.37c-6,62.25-8.61,130.35-3,140.33,8.78-4.12,42.65-41.09,67.63-68.36,48-52.47,70-75.47,79-75.47a6.7,6.7,0,0,1,5,2.34c5.5,6.31,3.05,27.34-1.78,64-2.5,19.08-5.1,38.82-5.64,54.17-.8,22.5,3.47,23.62,3.57,23.63,7.09,0,30.57-26.44,51.28-49.77,9.88-11.12,20.09-22.62,30.47-33.67,26.1-27.78,64-61.35,71.87-61.35l.57,0,.39.07c3.4.66,6.09,1.18,9.9,57.62C480.48,156.38,481.75,197.4,481.49,232.43Z"/></svg>