<?xml version="1.0" standalone="no"?>
<!DOCTYPE svg PUBLIC "-//W3C//DTD SVG 20010904//EN"
 "http://www.w3.org/TR/2001/REC-SVG-20010904/DTD/svg10.dtd">
<svg version="1.0" xmlns="http://www.w3.org/2000/svg"
 width="140.000000pt" height="140.000000pt" viewBox="0 0 140.000000 140.000000"
 preserveAspectRatio="xMidYMid meet">
<metadata>
Created by potrace 1.11, written by Peter Selinger 2001-2013
</metadata>
<g transform="translate(0.000000,140.000000) scale(0.100000,-0.100000)"
fill="#000000" stroke="none">
<path d="M260 1241 c-81 -25 -158 -101 -186 -183 -30 -90 2 -213 72 -279 l23
-21 -31 -26 c-107 -90 -82 -264 47 -323 59 -27 102 -24 181 16 89 45 101 45
109 -2 9 -50 25 -93 36 -93 5 0 29 18 54 41 24 22 50 39 56 37 7 -2 31 -37 54
-78 63 -111 129 -147 224 -121 95 25 146 93 144 191 0 30 -2 61 -4 69 -3 10 9
17 34 22 86 19 165 80 198 154 25 54 25 166 0 221 -26 58 -72 106 -128 134
-40 21 -62 25 -134 25 -77 0 -90 -3 -128 -28 -25 -17 -59 -55 -86 -96 -49 -77
-69 -97 -59 -57 4 19 0 31 -20 50 -32 33 -50 33 -82 1 -14 -14 -27 -25 -29
-25 -3 0 -5 46 -5 103 0 97 -2 106 -29 150 -61 95 -205 150 -311 118z"/>
<path d="M613 1155 c30 -46 51 -124 45 -160 -4 -19 -1 -25 13 -25 9 0 25 -3
35 -7 15 -6 16 -2 10 36 -9 59 -37 109 -86 156 l-43 40 26 -40z"/>
<path d="M1293 935 c36 -55 60 -156 52 -214 -9 -66 -60 -165 -103 -201 -20
-17 -60 -42 -88 -55 l-51 -24 -6 -61 c-12 -140 -132 -242 -267 -227 -25 2 -54
8 -64 12 -44 18 -1 -18 48 -41 100 -47 215 -20 289 66 41 48 57 93 57 157 0
41 1 42 54 66 71 33 129 87 160 150 22 43 26 64 26 142 0 107 -23 165 -91 230
l-42 40 26 -40z"/>
<path d="M355 364 c-53 -25 -108 -30 -165 -14 l-35 9 29 -23 c56 -46 153 -59
225 -30 38 15 39 16 28 50 -12 40 -16 40 -82 8z"/>
<path d="M563 307 c-47 -36 -50 -43 -27 -75 20 -28 23 -28 72 8 l41 30 -20 35
c-12 19 -22 35 -22 34 -1 0 -21 -15 -44 -32z"/>
</g>
</svg>
